<?xml version="1.0" standalone="no"?>
<!DOCTYPE svg PUBLIC "-//W3C//DTD SVG 1.1//EN" "http://www.w3.org/Graphics/SVG/1.1/DTD/svg11.dtd" >
<svg xmlns="http://www.w3.org/2000/svg">
<metadata>Generated by IcoMoon</metadata>
<defs>
<font id="hope-icons" horiz-adv-x="1024">
<font-face units-per-em="1024" ascent="960" descent="-64" />
<missing-glyph horiz-adv-x="1024" />
<glyph unicode="&#x20;" horiz-adv-x="512" d="" />
<glyph unicode="&#xe900;" glyph-name="arrow-down" d="M1024 217.6l-76.8-81.067-435.2 469.333-435.2-465.067-76.8 76.8 512 541.867 512-541.867z" />
<glyph unicode="&#xe901;" glyph-name="arrow-left" d="M742.4 960l81.067-76.8-469.333-435.2 465.067-435.2-76.8-76.8-541.867 512 541.867 512z" />
<glyph unicode="&#xe902;" glyph-name="arrow-line-right" d="M511.975 960l-93.121-93.12 352.384-352.385h-771.264v-132.991h771.328l-352.449-352.384 93.121-93.121 512 512-512 512z" />
<glyph unicode="&#xe903;" glyph-name="arrow-rignt" d="M277.333-64l-81.067 76.8 469.333 435.2-465.067 435.2 76.8 76.8 546.133-512-546.133-512z" />
<glyph unicode="&#xe904;" glyph-name="arrow-up" d="M1024 217.6l-76.8-81.067-435.2 469.333-435.2-465.067-76.8 76.8 512 541.867 512-541.867z" />
<glyph unicode="&#xe905;" glyph-name="egg" d="M553.223 480.851c7.401-7.538 20.934-17.131 20.934-17.131 108.869-87.095 268.252-80.129 368.846 20.466 107.996 107.997 107.996 283.93 0 391.928s-283.932 107.996-391.928 0c-100.594-100.593-107.561-259.977-20.467-368.845 0 0 8.655-10.576 14.403-17.18 3.17-3.64 4.83-5.794 8.212-9.238zM725.265 789.018c36.019 36.019 94.621 36.019 130.643 0 36.019-36.019 36.019-94.622 0-130.644-36.019-36.019-94.621-36.019-130.643 0-36.022 36.022-36.022 94.625 0 130.644zM83.14 324.745c7.401-7.538 20.934-17.132 20.934-17.132 108.869-87.095 268.252-80.129 368.845 20.467 107.997 107.996 107.997 283.93 0 391.928s-283.931 107.996-391.927 0c-100.594-100.594-107.561-259.977-20.467-368.846 0 0 8.655-10.576 14.404-17.18 3.17-3.64 4.83-5.794 8.211-9.237zM255.182 632.911c36.019 36.019 94.622 36.019 130.644 0 36.019-36.019 36.019-94.621 0-130.643-36.019-36.019-94.622-36.019-130.644 0-36.022 36.022-36.022 94.623 0 130.643zM426.209 16.546c7.401-7.538 20.934-17.132 20.934-17.132 108.869-87.094 268.252-80.129 368.846 20.467 107.996 107.996 107.996 283.93 0 391.928s-283.932 107.996-391.928 0c-100.594-100.594-107.561-259.977-20.467-368.846 0 0 8.655-10.576 14.403-17.179 3.17-3.641 4.83-5.794 8.212-9.238zM598.251 324.713c36.019 36.019 94.621 36.019 130.643 0 36.019-36.019 36.019-94.622 0-130.644-36.019-36.019-94.622-36.019-130.643 0-36.022 36.022-36.022 94.625 0 130.644z" />
<glyph unicode="&#xe906;" glyph-name="fet" d="M842.516 894.856c-43.112-72.031-141.907-242.498-141.907-312.194 0-89.286 72.381-161.665 161.665-161.665 89.286 0 161.665 72.379 161.665 161.665 0 69.696-98.795 240.163-141.905 312.194-4.146 6.966-11.653 11.235-19.76 11.235s-15.614-4.269-19.759-11.235zM856.527 509.014c-2.387-9.619-12.112-15.486-21.734-13.113-27.473 5.033-51.042 22.559-63.768 47.422-19.4 42.033 4.85 91.432 5.928 93.587 4.587 8.553 15.138 11.916 23.828 7.595s12.376-14.763 8.326-23.582c0 0-17.963-35.925-5.389-62.69 8.341-15.142 23.439-25.364 40.596-27.483 9.256-2.78 14.653-12.385 12.215-21.736zM581.877 953.594c-24.071-39.877-78.857-134.542-78.857-173.341 0-49.603 40.212-89.814 89.814-89.814s89.814 40.211 89.814 89.814c0 38.799-53.888 133.463-78.856 173.341-2.228 3.957-6.416 6.406-10.958 6.406s-8.73-2.449-10.957-6.406zM39.759 178.498c179.629-107.777 747.612-107.777 926.523 0-179.27 107.418-747.074 107.418-926.523 0zM251.54 169.516c-9.92 0-17.962 8.042-17.962 17.963s8.042 17.963 17.962 17.963c9.921 0 17.963-8.043 17.963-17.963s-8.042-17.963-17.963-17.963zM718.574 223.405c9.921 0 17.963-8.043 17.963-17.963s-8.042-17.963-17.963-17.963c-9.92 0-17.963 8.042-17.963 17.963s8.043 17.963 17.963 17.963zM664.686 187.479c9.92 0 17.963-8.042 17.963-17.963s-8.043-17.963-17.963-17.963c-9.921 0-17.963 8.043-17.963 17.963s8.042 17.963 17.963 17.963zM610.797 223.405c9.921 0 17.963-8.043 17.963-17.963s-8.042-17.963-17.963-17.963c-9.92 0-17.962 8.042-17.962 17.963s8.042 17.963 17.962 17.963zM556.909 187.479c0-71.851-251.479-71.851-251.479 0s251.479 71.851 251.479 0zM431.168 169.516c48.711 0 88.198 8.042 88.198 17.963s-39.487 17.963-88.198 17.963c-48.71 0-88.197-8.043-88.197-17.963s39.487-17.963 88.197-17.963zM503.020-64c311.656 0 502.96 73.288 502.96 125.74v100.411c-168.312-133.463-837.427-133.642-1005.918 0v-40.596c11.317-12.753 71.851-66.462 307.523-95.921 6.417-0.77 11.937-4.906 14.478-10.849 2.543-5.943 1.721-12.79-2.155-17.963s-10.217-7.885-16.634-7.114c-177.472 22.633-263.155 58.918-303.212 85.503v-13.471c0-52.452 191.304-125.74 502.959-125.74zM377.28 25.814c9.92 0 17.963-8.042 17.963-17.963s-8.043-17.963-17.963-17.963c-9.921 0-17.963 8.043-17.963 17.963s8.042 17.963 17.963 17.963zM638.281 303.699l8.442 42.392-338.779 338.779-50.835-50.836 338.779-338.779 42.392 8.443zM1005.978 223.405c0 41.673-113.526 95.382-323.331 116.758v-1.078c-9.341-46.525-8.442-45.087-11.676-51.375 145.499-13.652 265.671-44.547 326.025-85.682 5.397 5.859 8.574 13.42 8.982 21.376zM545.592 295.256l-53.889 53.888c-290.278-1.795-491.642-67.361-491.642-125.739 0.604-8.048 4.041-15.622 9.7-21.376 116.040 79.216 385.483 96.101 535.831 93.227zM155.619 710.198l76.162 76.162-139.751 139.751c-21.233 19.785-54.32 19.201-74.842-1.32s-21.105-53.609-1.32-74.842l139.751-139.751zM307.944 761.032c-11.497 11.497-15.807 17.963-25.328 17.963-4.774 0.028-9.364-1.847-12.753-5.208l-101.669-101.311c-3.401-3.373-5.314-7.964-5.314-12.753s1.913-9.381 5.314-12.753l12.753-12.574c3.372-3.4 7.964-5.313 12.753-5.313s9.381 1.913 12.753 5.313l101.49 101.49c6.847 6.984 6.847 18.163 0 25.147z" />
<glyph unicode="&#xe907;" glyph-name="ivf" d="M488.644 190.251c28.862 0 42.197 16.624 56.811 31.237 36.535 36.535 83.663 113.074 46.764 149.974-36.9 36.899-110.882-10.412-144.676-41.649l42.562-64.667c3.622-5.449 4.061-12.417 1.153-18.278s-8.723-9.726-15.253-10.138c-6.53-0.413-12.785 2.69-16.406 8.14l-37.996 56.811c-16.561-24.897-13.029-58.062 8.403-78.914 17.537-16.623 30.142-31.967 58.638-32.515zM378.676 565.64l-16.988-11.326 51.33-103.21c8.255-16.489 2.928-36.544-12.422-46.763l-1.826-1.279 28.314-42.38c50.6 44.937 138.465 89.143 190.892 36.534 56.627-56.446 1.46-153.627-46.582-200.938l-13.883-13.883c-22.794-23.22-55.793-33.327-87.682-26.853-2.871-10.324-7.241-20.17-12.97-29.227 149.322-86.495 340.107-42.84 436.956 99.985 96.847 142.826 66.804 336.222-68.809 442.937-135.613 106.714-330.651 90.433-446.694-37.286l10.595-15.893c11.006-16.765 6.44-39.267-10.231-50.417zM835.355 288.71c-7.149-7.090-18.688-7.059-25.799 0.071s-7.11 18.668 0 25.798c7.111 7.13 18.65 7.161 25.799 0.071 3.409-3.478 5.29-8.175 5.221-13.046s-2.081-9.513-5.587-12.894h0.365zM783.293 504.81c15.668 15.688 39.245 20.389 59.731 11.911s33.846-28.466 33.846-50.637-13.359-42.159-33.846-50.637c-20.486-8.478-44.062-3.777-59.731 11.911-21.369 21.396-21.369 56.056 0 77.452zM772.515 369.451c7.149 7.090 18.688 7.059 25.799-0.071s7.11-18.668 0-25.798c-7.111-7.13-18.65-7.161-25.799-0.071-3.457 3.43-5.403 8.099-5.403 12.97s1.946 9.539 5.403 12.97zM592.95 622.086c29.243 29.169 74.424 35.082 110.189 14.422 35.766-20.662 53.214-62.755 42.554-102.659-10.659-39.906-46.774-67.691-88.078-67.764-36.993-0.066-70.372 22.188-84.537 56.361s-6.32 73.516 19.871 99.641zM436.217 541.344c15.668 15.687 39.245 20.388 59.731 11.91s33.846-28.465 33.846-50.636c0-22.172-13.36-42.159-33.846-50.637s-44.062-3.777-59.731 11.91c-21.369 21.396-21.369 56.057 0 77.453zM696.341 518.693c15.687 15.667 20.388 39.244 11.91 59.729-8.478 20.487-28.465 33.846-50.636 33.846-22.172 0-42.159-13.359-50.637-33.846s-3.777-44.062 11.91-59.729c21.709-20.599 55.744-20.599 77.453 0zM461.974 489.65c5.854-5.807 14.872-6.971 22.009-2.843s10.624 12.527 8.511 20.496c-2.114 7.97-9.306 13.534-17.551 13.583-7.421 0.043-14.13-4.408-16.976-11.263s-1.263-14.748 4.008-19.974zM809.050 453.114c5.854-5.807 14.872-6.971 22.010-2.843 7.137 4.129 10.624 12.527 8.51 20.496s-9.304 13.535-17.55 13.583c-7.422 0.043-14.131-4.408-16.977-11.262-2.845-6.855-1.261-14.749 4.008-19.975zM287.341 636.882l-20.276 30.141c-29.776-19.728-32.698-23.382-40.554-23.382-8.044-0.019-15.154 5.229-17.508 12.922s0.602 16.020 7.279 20.507l30.506 20.459-20.276 30.871c-29.775-19.911-32.698-23.382-40.553-23.382-8.045-0.017-15.154 5.229-17.508 12.922s0.602 16.020 7.279 20.507l30.506 19.911-20.276 31.055c-29.775-19.912-32.698-23.382-40.553-23.382-8.045-0.019-15.155 5.228-17.509 12.921s0.602 16.021 7.28 20.508l30.506 20.276-19.546 29.958c-30.507-19.18-33.429-22.651-41.284-22.651-8.045-0.017-15.155 5.229-17.509 12.922s0.602 16.020 7.279 20.507l30.507 20.276-20.277 30.506c-29.775-19.729-31.785-23.199-40.553-23.199-7.912 0.291-14.736 5.646-16.9 13.262s0.824 15.759 7.401 20.167l29.775 19.546-6.211 9.316c-3.188 5.383-8.908 8.76-15.162 8.951h-44.937c-10.089 0-18.267-8.178-18.267-18.267v-65.031c4.384-14.431-18.267 21.921 196.006-299.947l91.336 60.83zM621.081 813.16c-120.271 0.683-234.408-53.028-310.541-146.136l6.576-9.864c10.807 7.395 24.745 8.44 36.535 2.739 130.54 140.994 347.986 156.776 497.517 36.108s180.039-336.54 69.802-493.918-323.54-202.472-488.041-103.174c-10.305-9.185-22.272-16.315-35.255-21.007 143.064-96.308 331.629-90.598 468.606 14.189 136.975 104.789 191.821 285.29 136.298 448.57s-209.034 272.93-381.497 272.493zM348.352 612.22c-2.68 4.056-6.867 6.876-11.633 7.836s-9.716-0.019-13.759-2.721l-122.024-82.019c-8.425-5.651-10.674-17.059-5.025-25.484 5.651-8.424 17.059-10.673 25.484-5.023l122.024 81.107c4.293 2.711 7.263 7.087 8.199 12.077s-0.248 10.145-3.266 14.227zM368.263 382.97l-1.827-1.279c-15.333-10.174-35.839-7.357-47.859 6.576l-26.305 30.141c-1.953-81.524 26.801-160.806 80.559-222.128 2.986 2.395 5.364 5.462 6.941 8.951 0.862 6.63 2.71 13.096 5.48 19.18-18.267 36.126-12.226 79.793 15.162 109.603l-32.15 48.957zM435.852 169.792c-8.496 5.406-16.236 11.917-23.017 19.363-7.206-16.45-22.016-28.325-39.639-31.785-23.523-0.825-47.074-0.154-70.512 2.010-11.863 0.443-23.718-1.101-35.072-4.567-32.021-10.513-56.072-37.207-63.205-70.145-11.143-50.783 32.515-107.045-20.824-147.965 6.306 0.908 12.454 2.691 18.268 5.298 54.801 25.756 46.032 102.113 49.869 121.294 11.143 57.358 78.001 34.525 115.082 43.476 33.526 5.357 60.66 30.124 69.050 63.021zM274.005 496.042l72.156-83.846 34.159 22.469-49.321 99.191-56.994-37.814zM243.316 475.583l-17.171-11.326c-1.096 0-2.192 0-3.288-1.644-12.451-93.548 8.788-188.474 59.917-267.796 14.82 1.486 29.752 1.486 44.572 0-56.144 75.377-80.656 169.688-68.319 262.864l-15.71 17.901z" />
<glyph unicode="&#xe908;" glyph-name="microscope" horiz-adv-x="977" d="M223.959 89.587c-47.125 0-85.326-38.202-85.326-85.327h785.001c0 47.125-38.202 85.327-85.327 85.327h-614.348zM87.437-46.934c0-9.425 7.64-17.066 17.065-17.066h853.263c9.424 0 17.065 7.64 17.065 17.066 0 9.424-7.64 17.065-17.065 17.065h-853.263c-9.425 0-17.065-7.64-17.065-17.065zM514.068 311.434v-34.129c0-9.425 7.64-17.066 17.066-17.066h307.173c9.425 0 17.066 7.64 17.066 17.066v34.129c0 9.425-7.64 17.066-17.066 17.066-22.867 0-18.43 0-18.772 1.706-6.143 60.752-37.373 122.529-89.763 152.734 26.581 13.761 48.889 34.534 64.506 60.069v0.854c34.85 56.926 35.309 128.47 1.195 185.84-14.981 25.556-36.629 46.556-62.629 60.752 51.195 31.059 80.206 92.152 85.326 150.686 0.943 9.425-5.933 17.829-15.359 18.772-9.424 0.942-17.829-5.934-18.772-15.359-1.344-18.062-5.133-35.859-11.263-52.902h-176.113c-6.714 16.961-11.077 34.76-12.97 52.902-0.943 9.425-9.346 16.301-18.772 15.359-9.424-0.942-16.301-9.347-15.359-18.772 4.169-60.554 35.543-115.961 85.326-150.686-41.386-24.064-71.269-63.856-82.843-110.31s-3.85-95.614 21.409-136.282v-1.024c15.98-26.085 38.988-47.141 66.383-60.752-29.204-17.392-52.6-43.045-67.236-73.722-12.382-25-20.020-52.080-22.527-79.865h-18.942c-9.425 0-17.066-7.64-17.066-17.066zM615.093 857.522h139.423c-15.896-25.331-40.86-43.642-69.797-51.196-28.904 7.529-53.822 25.85-69.626 51.196zM684.72 772.196c23.766-4.736 45.506-16.649 62.288-34.131h-124.575c16.782 17.481 38.522 29.395 62.287 34.131zM598.029 703.935h173.383c8.325-15.959 13.646-33.313 15.7-51.195h-203.93c1.786 17.828 6.818 35.178 14.847 51.195zM600.248 567.414c-8.879 15.831-14.67 33.204-17.066 51.195h202.565c-2.396-17.991-8.187-35.364-17.066-51.195h-168.433zM626.527 533.283h116.386c-16.138-15.32-36.337-25.686-58.193-29.864-21.857 4.177-42.054 14.543-58.192 29.864zM684.72 465.022c28.915-7.6 53.862-25.899 69.797-51.195h-139.593c15.909 25.32 40.867 43.627 69.796 51.195zM596.664 379.696h176.113c6.441-16.436 10.687-33.649 12.628-51.195h-201.37c1.942 17.546 6.188 34.759 12.629 51.195zM143.753 649.157c-70.971-142.548-44.296-314.36 66.554-428.679 14.227 32.242 35.513 60.877 62.288 83.79-51.77 60.58-74.63 140.681-62.63 219.459-16.663 22.265-23.395 50.423-18.601 77.817l-47.611 47.613zM198.19 884.655c-3.203 3.231-7.566 5.048-12.116 5.048s-8.912-1.817-12.117-5.048l-96.589-96.589c-3.231-3.203-5.048-7.566-5.048-12.116s1.817-8.912 5.048-12.117l126.966-126.964c21.793 36.798 64.162 56.176 106.253 48.593s75.035-40.527 82.617-82.617c7.582-42.091-11.796-84.46-48.593-106.253l22.355-22.356c3.205-3.23 7.566-5.048 12.117-5.048 4.55 0 8.912 1.818 12.116 5.048 17.919 17.065 1.536 0 96.589 96.589 3.231 3.205 5.049 7.566 5.049 12.117s-1.818 8.912-5.049 12.116l-289.597 289.597zM72.42 817.249l72.356 72.356-60.24 60.24c-6.402 6.409-15.089 10.010-24.147 10.010s-17.746-3.601-24.147-10.010l-24.062-24.062c-6.409-6.402-10.010-15.089-10.010-24.147s3.601-17.745 10.010-24.147l60.24-60.24zM501.098 533.283l-72.356-72.357 36.179-36.177c6.401-6.409 15.089-10.011 24.147-10.011 9.059 0 17.745 3.601 24.148 10.011l24.062 23.209c6.409 6.401 10.011 15.089 10.011 24.147 0 9.059-3.601 17.745-10.011 24.148l-36.179 37.032zM787.111 226.11h-204.783c-9.424 0-17.065-7.64-17.065-17.066v-68.26c0-9.425 7.64-17.066 17.065-17.066h204.783c9.425 0 17.066 7.64 17.066 17.066v68.26c0 9.425-7.64 17.066-17.066 17.066zM428.742 260.239c0.034 19.015-9.446 36.787-25.258 47.351-15.811 10.565-35.859 12.52-53.413 5.211-76.365-31.775-126.117-106.37-126.111-189.083h204.783v136.521zM326.351 191.978c-9.425 0-17.066 7.64-17.066 17.066 0 9.424 7.64 17.065 17.066 17.065 9.424 0 17.065-7.64 17.065-17.065s-7.64-17.066-17.065-17.066zM292.22 516.218c37.699 0 68.26 30.562 68.26 68.261s-30.561 68.26-68.26 68.26c-37.699 0-68.261-30.561-68.261-68.26s30.562-68.261 68.261-68.261z" />
<glyph unicode="&#xe909;" glyph-name="minus" d="M950.856 557.715c19.811 0 36.572-7.62 50.289-22.858 15.239-13.714 22.855-30.476 22.855-50.286v-73.143c0-19.81-7.615-37.333-22.855-52.572-13.717-13.714-30.477-20.571-50.289-20.571h-877.713c-19.81 0-37.334 6.857-52.571 20.571-13.714 15.239-20.572 32.762-20.572 52.572v73.143c0 19.81 6.858 36.572 20.572 50.286 15.238 15.238 32.762 22.858 52.571 22.858h877.713z" />
<glyph unicode="&#xe90a;" glyph-name="plus" d="M925.538 551.384c18.668 0 34.462-7.18 47.388-21.539 14.36-12.923 21.536-28.718 21.536-47.384v-68.923c0-18.667-7.176-35.179-21.536-49.539-12.926-12.923-28.719-19.384-47.388-19.384h-310.154v-310.154c0-18.668-7.18-34.462-21.539-47.388-12.923-14.36-28.718-21.536-47.384-21.536h-68.923c-18.667 0-35.179 7.176-49.539 21.536-12.923 12.926-19.384 28.719-19.384 47.388v310.154h-310.154c-18.667 0-35.18 6.461-49.538 19.384-12.923 14.36-19.385 30.872-19.385 49.539v68.923c0 18.667 6.462 34.462 19.385 47.384 14.359 14.359 30.872 21.539 49.538 21.539h310.154v310.154c0 18.667 6.461 34.462 19.384 47.385 14.36 14.359 30.872 21.539 49.539 21.539h68.923c18.667 0 34.462-7.18 47.384-21.539 14.359-12.923 21.539-28.718 21.539-47.385v-310.154h310.154z" />
<glyph unicode="&#xe90b;" glyph-name="quote" d="M8.193 400.075c0 27.853 7.373 61.44 22.118 100.762 16.384 39.322 37.683 78.643 63.898 117.965 27.853 39.322 58.982 72.090 93.389 98.304s70.451 39.322 108.135 39.322c32.768 0 60.621-7.373 83.558-22.118s34.406-40.141 34.406-76.186c0-36.045-12.288-58.163-36.864-66.355-22.938-8.192-42.598-16.384-58.982-24.576-21.299-11.469-38.502-25.395-51.61-41.779-11.469-14.746-17.203-33.587-17.203-56.525 0-16.384 8.192-31.949 24.576-46.694 18.022-14.746 40.96-22.118 68.813-22.118 9.83 0 21.299 0.819 34.406 2.458 13.107 3.277 24.576 8.192 34.406 14.746 18.022-6.554 32.768-16.384 44.237-29.491s17.203-33.587 17.203-61.44c0-36.045-12.288-67.994-36.864-95.846s-54.886-49.971-90.931-66.355c-36.045-16.384-71.27-24.576-105.677-24.576-70.451 0-126.976 22.118-169.575 66.355-40.96 44.237-61.44 108.954-61.44 194.15zM551.323 400.075c0 27.853 7.373 61.44 22.118 100.762 16.384 39.322 37.683 78.643 63.898 117.965 27.853 39.322 58.982 72.090 93.389 98.304s70.451 39.322 108.134 39.322c32.768 0 60.621-7.373 83.558-22.118s34.406-40.141 34.406-76.186c0-36.045-12.288-58.163-36.864-66.355-22.938-8.192-42.598-16.384-58.982-24.576-21.299-11.469-38.502-25.395-51.61-41.779-11.469-14.746-17.203-33.587-17.203-56.525 0-16.384 8.192-31.949 24.576-46.694 18.022-14.746 40.96-22.118 68.813-22.118 9.83 0 21.299 0.819 34.406 2.458 13.107 3.277 24.576 8.192 34.406 14.746 18.022-6.554 32.768-16.384 44.237-29.491s17.203-33.587 17.203-61.44c0-36.045-12.288-67.994-36.864-95.846s-54.886-49.971-90.931-66.355c-36.045-16.384-71.27-24.576-105.677-24.576-70.451 0-126.976 22.118-169.574 66.355-40.96 44.237-61.44 108.954-61.44 194.15z" />
<glyph unicode="&#xe90c;" glyph-name="sco-fb" d="M751.471 384h-150.928v-448h-201.235v448h-163v186h163v140c0 80 22.136 141.333 66.408 184 44.272 44 103.301 66 177.087 66 21.465 0 44.272-1.333 68.42-4 24.148-1.333 42.932-3.333 56.346-6l20.122-2v-158h-80.493c-37.564 0-65.066-10-82.506-30-16.099-18.666-24.148-42-24.148-70v-120h179.099l-28.17-186z" />
<glyph unicode="&#xe90d;" glyph-name="soc-in" d="M228.572-63.998h-212.572v683.427h212.572v-683.427zM210.286 749.716c-24.381-24.381-53.333-36.572-86.857-36.572s-62.476 12.191-86.857 36.572c-24.381 24.381-36.571 53.333-36.571 86.857s12.19 62.476 36.571 86.857c24.381 24.381 53.333 36.571 86.857 36.571s62.476-12.19 86.857-36.571c24.381-24.381 36.572-53.333 36.572-86.857s-12.191-62.476-36.572-86.857zM1024-63.998h-212.572v333.716c0 25.902-0.763 46.474-2.284 61.711-1.526 16.763-5.335 35.046-11.428 54.856-6.098 21.335-17.526 37.335-34.289 48-15.237 10.67-35.809 16.002-61.711 16.002-50.289 0-84.572-16.002-102.861-48.002-16.763-32-25.139-74.665-25.139-128v-338.284h-212.574v683.427h205.713v-93.714h2.289c15.237 30.476 40.381 56.381 75.428 77.714 35.046 22.857 76.954 34.286 125.711 34.286 51.809 0 94.479-8.381 128-25.143 35.052-15.238 60.954-38.857 77.716-70.857 18.284-30.476 30.474-64 36.572-100.57 7.619-36.572 11.428-80 11.428-130.289v-374.856z" />
<glyph unicode="&#xe90e;" glyph-name="soc-inst" d="M512.113 710.541c-145.289 0-262.48-117.218-262.48-262.541 0-145.321 117.192-262.538 262.48-262.538 145.29 0 262.482 117.217 262.482 262.538 0 145.323-117.192 262.541-262.482 262.541zM512.113 277.315c-93.889 0-170.646 76.544-170.646 170.685s76.529 170.686 170.646 170.686c94.121 0 170.65-76.546 170.65-170.686s-76.759-170.685-170.65-170.685v0zM846.556 721.28c0-34.046-27.412-61.237-61.225-61.237-34.038 0-61.22 27.42-61.22 61.237s27.412 61.237 61.22 61.237c33.812 0 61.225-27.42 61.225-61.237zM1020.401 659.129c-3.881 82.030-22.615 154.691-82.693 214.557-59.853 59.866-132.5 78.602-214.513 82.715-84.521 4.798-337.867 4.798-422.391 0-81.783-3.884-154.428-22.621-214.509-82.487s-78.585-132.527-82.697-214.557c-4.797-84.543-4.797-337.945 0-422.486 3.884-82.033 22.616-154.691 82.697-214.559 60.081-59.863 132.498-78.602 214.509-82.714 84.524-4.797 337.87-4.797 422.391 0 82.012 3.886 154.66 22.62 214.513 82.714 59.848 59.868 78.582 132.526 82.693 214.559 4.797 84.541 4.797 337.715 0 422.258v0zM911.206 146.161c-17.818-44.79-52.316-79.288-97.316-97.341-67.395-26.732-227.302-20.562-301.778-20.562-74.471 0-234.61-5.944-301.773 20.562-44.775 17.823-79.27 52.326-97.317 97.341-26.728 67.405-20.56 227.348-20.56 301.839 0 74.489-5.939 234.664 20.56 301.842 17.819 44.785 52.314 79.288 97.317 97.339 67.391 26.734 227.302 20.564 301.773 20.564 74.476 0 234.614 5.941 301.778-20.564 44.774-17.823 79.268-52.325 97.316-97.339 26.726-67.406 20.557-227.353 20.557-301.842 0-74.491 6.17-234.665-20.557-301.839z" />
<glyph unicode="&#xe90f;" glyph-name="soc-tell" d="M1008.407 791.613l-150.68-712.996c-11.366-50.323-41.013-62.847-83.141-39.14l-229.589 169.75-110.781-106.903c-12.259-12.301-22.512-22.588-46.14-22.588l16.494 234.609 425.517 385.795c18.5 16.55-4.012 25.72-28.753 9.17l-526.045-332.344-226.467 71.121c-49.261 15.431-50.153 49.425 10.253 73.132l885.807 342.41c41.013 15.432 76.9-9.17 63.525-72.015z" />
<glyph unicode="&#xe910;" glyph-name="soc-viber" d="M870.627 811.2c-95.77 96-223.312 148.8-358.854 148.8-279.773 0-507.43-227.657-507.43-507.427 0-89.373 23.314-176.688 67.657-253.715l-72-262.858 269.028 70.627c74.056-40.454 157.487-61.712 242.514-61.712h0.23c279.542 0 512.227 227.658 512.227 507.427 0 135.542-57.6 262.858-153.373 358.858v0zM511.773 30.4c-75.888 0-150.173 20.342-214.859 58.742l-15.314 9.142-159.543-41.827 42.514 155.658-10.057 16c-42.286 67.2-64.457 144.685-64.457 224.458 0 232.456 189.257 421.713 421.943 421.713 112.685 0 218.515-43.886 298.058-123.657s128.458-185.601 128.227-298.286c0-232.685-194.058-421.942-426.512-421.942v0zM743.085 346.285c-12.57 6.4-74.97 37.030-86.627 41.142-11.658 4.346-20.115 6.4-28.573-6.4s-32.685-41.142-40.227-49.827c-7.315-8.458-14.858-9.6-27.43-3.2-74.512 37.258-123.427 66.515-172.57 150.858-13.030 22.4 13.027 20.8 37.258 69.258 4.112 8.458 2.058 15.77-1.142 22.17s-28.573 68.8-39.088 94.172c-10.285 24.685-20.8 21.257-28.57 21.714-7.315 0.457-15.773 0.457-24.23 0.457s-22.171-3.2-33.828-15.771c-11.657-12.8-44.343-43.43-44.343-105.83s45.486-122.742 51.657-131.2c6.4-8.454 89.371-136.454 216.686-191.542 80.458-34.742 112-37.712 152.227-31.77 24.458 3.658 74.973 30.627 85.488 60.342 10.512 29.715 10.512 55.085 7.312 60.342-2.97 5.715-11.427 8.915-24 15.085z" />
<glyph unicode="&#xe911;" glyph-name="soc-wapp" d="M888.006 860.288c-25.399 23.397-128.186 97.987-357.357 98.988 0 0-270.166 16.198-401.749-104.587-73.191-73.191-98.988-180.577-101.787-313.561-2.799-132.982-6.199-382.151 233.971-449.742h0.2l-0.2-103.187c0 0-1.6-41.796 25.997-50.195 33.196-10.399 52.793 21.399 84.588 55.593 17.399 18.797 41.396 46.394 59.593 67.393 164.379-13.799 290.565 17.796 304.963 22.397 33.196 10.799 220.97 34.795 251.367 283.965 31.596 257.168-15.198 419.547-99.585 492.937zM915.801 386.149c-25.799-207.974-177.978-221.172-205.975-230.173-11.998-3.798-122.986-31.395-262.367-22.397 0 0-103.986-125.382-136.383-157.98-10.599-10.597-22.197-9.599-21.997 11.4 0 13.796 0.8 171.377 0.8 171.377-0.2 0-0.2 0 0 0-203.574 56.393-191.576 268.568-189.377 379.553 2.199 110.987 23.197 201.975 85.189 263.168 111.386 100.987 340.756 85.989 340.756 85.989 193.778-0.8 286.566-59.193 308.163-78.79 71.39-61.192 107.785-207.574 81.189-422.146zM637.835 547.729c0.8-17.198-24.998-18.397-25.799-1.2-2.198 43.995-22.797 65.391-65.192 67.79-17.198 1.001-15.598 26.797 1.401 25.797 55.792-3 86.789-34.996 89.589-92.387zM678.43 525.131c1.999 84.789-50.992 151.181-151.581 158.58-16.996 1.2-15.198 26.997 1.801 25.797 115.986-8.398 177.777-88.188 175.578-184.976-0.198-17.198-26.196-16.398-25.799 0.598zM772.417 498.334c0.201-17.198-25.796-17.396-25.796-0.198-1.2 162.978-109.788 251.767-241.57 252.767-16.999 0.2-16.999 25.797 0 25.797 147.38-1 265.966-102.787 267.365-278.366zM749.821 302.16v-0.4c-21.597-37.995-61.992-79.99-103.587-66.593l-0.4 0.601c-42.197 11.797-141.582 62.99-204.374 112.984-32.396 25.597-61.992 55.795-84.789 84.789-20.598 25.799-41.394 56.393-61.592 93.189-42.595 76.992-51.993 111.388-51.993 111.388-13.398 41.593 28.396 81.989 66.592 103.585h0.4c18.397 9.599 35.994 6.399 47.795-7.799 0 0 24.796-29.596 35.394-44.195 9.999-13.598 23.398-35.395 30.396-47.594 12.2-21.798 4.601-43.993-7.397-53.192l-23.997-19.197c-12.2-9.801-10.6-27.997-10.6-27.997s35.595-134.585 168.58-168.58c0 0 18.196-1.6 27.997 10.6l19.197 23.997c9.199 11.998 31.395 19.597 53.193 7.397 29.395-16.596 66.792-42.395 91.588-65.791 13.998-11.4 17.198-28.796 7.599-47.194z" />
<glyph unicode="&#xe912;" glyph-name="surr" d="M512 960c-281.219 0-512-230.781-512-512s230.781-512 512-512c281.219 0 512 230.781 512 512s-230.781 512-512 512zM876.305 451.252c-1.003-1.216-2.288-2.095-3.348-3.252 1.058-1.158 2.345-2.036 3.348-3.252 16.67-20.244 23.439-46.317 18.517-71.572-30.001-154.218-153.78-277.997-307.968-307.998-5.42-1.053-10.871-1.581-16.261-1.581-19.921 0-39.433 7.002-55.341 20.098-1.216 1.003-2.095 2.288-3.252 3.348-1.158-1.058-2.036-2.345-3.252-3.348-15.908-13.097-35.42-20.098-55.341-20.098-5.39 0-10.84 0.528-16.23 1.581-154.218 30.001-277.997 153.78-307.998 307.968-4.922 25.285 1.847 51.358 18.517 71.602 1.003 1.216 2.288 2.095 3.348 3.252-1.058 1.158-2.345 2.036-3.348 3.252-16.67 20.244-23.439 46.317-18.517 71.572 30.001 154.218 153.78 277.997 307.968 307.998 25.577 4.892 51.386-1.905 71.602-18.517 1.216-1.003 2.095-2.288 3.252-3.348 1.158 1.058 2.036 2.345 3.252 3.348 20.214 16.64 46.289 23.496 71.572 18.517 154.218-30.001 277.997-153.78 307.998-307.968 4.922-25.285-1.847-51.358-18.517-71.602zM512 374.44c40.626 0 73.56 32.934 73.56 73.56s-32.934 73.559-73.56 73.559c-40.626 0-73.56-32.933-73.56-73.559s32.934-73.56 73.56-73.56zM218.095 478.001h113.906c82.705 0 150 67.294 150 150v113.906c0 9.346-4.16 18.106-11.426 24.112-3.135 2.579-9.112 6.386-17.080 6.386-1.552 0-3.194-0.145-4.893-0.468-130.458-25.372-235.165-130.078-260.537-260.566-2.022-10.399 2.842-18.221 5.917-21.944 6.007-7.266 14.767-11.426 24.113-11.426zM342.284 660.139l42.423-42.423-42.423-42.422-42.422 42.422 42.422 42.423zM332.001 418h-113.906c-9.346 0-18.106-4.16-24.113-11.426-3.075-3.72-7.939-11.542-5.917-21.973 25.372-130.458 130.077-235.165 260.566-260.537 10.224-2.022 18.193 2.842 21.944 5.917 7.266 6.007 11.426 14.767 11.426 24.113v113.905c0 82.707-67.294 150.001-150 150.001zM342.284 235.862l-42.422 42.422 42.422 42.423 42.423-42.423-42.423-42.422zM805.905 418h-113.905c-82.707 0-150.001-67.294-150.001-150v-113.906c0-9.346 4.16-18.106 11.426-24.113 3.75-3.106 11.661-7.998 21.973-5.917 130.458 25.372 235.165 130.077 260.537 260.565 2.022 10.401-2.842 18.223-5.917 21.945-6.007 7.266-14.767 11.426-24.113 11.426zM681.716 235.862l-42.423 42.422 42.423 42.423 42.422-42.423-42.422-42.422zM575.37 771.937c-1.7 0.322-3.311 0.468-4.892 0.468-7.941 0-13.916-3.807-17.051-6.386-7.266-6.006-11.426-14.765-11.426-24.112v-113.906c0-82.705 67.294-150 150-150h113.906c9.346 0 18.106 4.16 24.113 11.426 3.075 3.72 7.939 11.542 5.917 21.972-25.373 130.46-130.079 235.166-260.567 260.538zM681.716 575.295l-42.423 42.422 42.423 42.423 42.422-42.423-42.422-42.422z" />
<glyph unicode="&#xe913;" glyph-name="close" d="M52.668 960c-13.489 0-26.977-5.131-37.226-15.456-20.574-20.574-20.574-53.929 0-74.502l918.613-918.615c20.574-20.57 53.931-20.57 74.505 0 20.574 20.574 20.574 53.931 0 74.517l-918.602 918.6c-10.325 10.261-23.814 15.456-37.289 15.456v0zM971.344 960c-13.491 0-26.965-5.131-37.227-15.456l-918.677-918.6c-20.574-20.587-20.574-53.943 0-74.517 20.574-20.57 53.929-20.57 74.515 0l918.602 918.615c20.574 20.574 20.574 53.929 0 74.502-10.325 10.261-23.804 15.456-37.214 15.456z" />
<glyph unicode="&#xe914;" glyph-name="sur-egg" d="M487.608 737.606c0.84 24.373 1.528 45.537 1.528 61.858 0.287 21.988 8.879 43.053 24.053 58.969 9.737 10.687 23.385 16.977 37.835 17.436h17.665c26.377-103.767 30.894-211.887 13.264-317.493-14.592-5.252-28.354-12.576-40.862-21.744-6.752-5.064-8.12-14.642-3.056-21.394s14.642-8.12 21.394-3.056c36.216 27.169 85.573 30.852 129.125 34.107 22.020 0.651 43.892 3.826 65.189 9.459 13.844 4.585 27.506 10.223 40.57 15.633 17.611 7.934 35.861 14.369 54.553 19.238 1.316 0.102 2.614 0.364 3.867 0.78 14.136 3.316 28.975 1.816 42.161-4.263 8.071-3.835 14.586-10.302 18.486-18.338-24.696-4.232-47.729-15.26-66.514-31.845-138.614-75.061-299.645-97.798-345.901-102.902-20.186 93.214-16.075 219.023-13.356 303.557zM733.63 295.193c-25.318 0-45.843 20.524-45.843 45.843s20.525 45.843 45.843 45.843 45.843-20.525 45.843-45.843c0-25.319-20.525-45.843-45.843-45.843zM658.252 875.869h72.829c5.366-0.005 10.337-2.824 13.096-7.427 17.296-28.746 38.76-54.767 63.691-77.214-24.469-4.674-49.323-7.032-74.235-7.045-58.587 0-72.203 62.087-75.38 91.686zM865.568 754.675c24.374-9.378 39.806-33.536 38.066-59.596-2.129-34.777-25.847-64.48-59.292-74.249-21.175-5.134-41.826-12.225-61.689-21.18-12.653-5.212-25.733-10.606-38.57-14.884-18.926-4.735-38.307-7.414-57.808-7.992-24.052-1.308-47.987-4.253-71.638-8.817 14.788 102.63 9.839 207.139-14.578 307.912h27.368c4.325-49.25 29.936-122.247 106.202-122.247 36.098 0 72.045 4.621 106.967 13.753 7.963-4.909 16.313-9.156 24.97-12.699zM716.656 81.35c14.055-1.568 28.185-2.355 42.327-2.354 52.205-0.392 103.847 10.82 151.186 32.823 9.763-23.855 16.327-48.901 19.507-74.479 0.544-4.359-0.798-8.745-3.705-12.039s-7.099-5.177-11.484-5.169h-388.401c-4.572 0-8.904 2.048-11.807 5.581s-4.071 8.18-3.184 12.665c12.103 59.107 40.097 178.68 83.404 265.262 17.081 37.363 25.441 78.122 24.449 119.192 85.053 18.027 167.218 47.686 244.175 88.141 1.279 0.701 2.452 1.581 3.484 2.613 18.111 16.202 41.384 25.451 65.674 26.1h0.234c20.975-14.36 39.218-32.341 53.882-53.101-34.161-13.771-55.865-47.641-54.116-84.428-0.573-15.125-6.146-29.633-15.84-41.258-4.668 23.584-25.702 40.342-49.727 39.623-10.654 0.208-20.971-3.731-28.775-10.987-8.669-8.82-13.248-20.87-12.622-33.221-1.671-11.993-7.677-22.958-16.886-30.821 7.883 37.014-12.519 74.222-47.966 87.478s-75.257-1.434-93.597-34.539-9.682-74.645 20.355-97.667c-0.693-32.829 10.83-64.746 32.334-89.561 24.133-23.354 56.953-35.522 90.478-33.542 68.979 0 86.324 24.19 101.844 55.821 3.88 9.185 9.257 17.654 15.928 25.061 8.898 8.9 18.524 17.032 28.784 24.311 11.066 8.098 21.539 15.77 21.539 32.334 0 31.724-15.287 41.489-39.49 44.499 15.014 17.417 23.562 39.482 24.204 62.468-2.091 25.983 14.042 49.967 38.887 57.824 15.199-32.415 22.804-67.87 22.24-103.666 0-121.346-62.060-181.369-114.104-210.373-58.353-30.351-124.542-42.282-189.82-34.214-8.389 0.936-15.948-5.105-16.886-13.493s5.105-15.948 13.493-16.886zM840.599 234.067c2.359-0.023 4.692 0.5 6.815 1.529 29.231 16.473 51.377 43.124 62.22 74.877 37.934-0.091 37.934-1.208 37.934-15.281-2.636-2.964-5.679-5.537-9.034-7.641-11.523-8.202-22.336-17.356-32.333-27.368-9.102-9.74-16.464-20.971-21.761-33.205-11.033-22.509-18.994-38.752-74.403-38.752-25.167-1.804-49.951 6.943-68.413 24.144-13.25 14.971-21.291 33.833-22.921 53.759 4.916-0.985 9.916-1.486 14.929-1.497 67.726 0 122.247 50.152 122.247 91.686-0.339 4.012 0.821 8.008 3.254 11.216 2.148 1.748 4.877 2.621 7.641 2.445 9.581 0 19.728-7.029 19.728-13.661 0.557-38.301-19.575-73.929-52.673-93.214-6.429-3.114-9.844-10.266-8.222-17.223s7.848-11.862 14.992-11.811zM289.436 308.612c5.238-1.979 13.883-3.586 13.883-3.586 71.755-17.683 146.889 21.125 172.908 91.903 27.935 75.986-11.204 160.632-87.191 188.568s-160.633-11.205-188.568-87.191c-26.019-70.778 6.086-149.012 72.209-182.016 0 0 6.516-3.163 10.751-5.062 2.335-1.046 3.613-1.712 6.006-2.618zM303.654 495.154c9.317 25.343 37.512 38.381 62.856 29.064 25.342-9.317 38.38-37.512 29.064-62.856s-37.512-38.381-62.856-29.064-38.382 37.512-29.064 62.856zM97.994 128.928c5.239-1.979 13.883-3.586 13.883-3.586 71.755-17.683 146.89 21.125 172.909 91.903 27.935 75.986-11.204 160.632-87.191 188.568s-160.633-11.205-188.568-87.191c-26.020-70.778 6.085-149.012 72.208-182.016 0 0 6.517-3.163 10.752-5.062 2.335-1.046 3.613-1.712 6.005-2.618zM112.212 315.469c9.317 25.343 37.512 38.381 62.856 29.064 25.342-9.317 38.38-37.512 29.063-62.856s-37.512-38.381-62.856-29.064c-25.344 9.317-38.382 37.512-29.064 62.856zM331.618 56.966c5.238-1.98 13.883-3.587 13.883-3.587 71.755-17.683 146.89 21.125 172.909 91.904 27.934 75.985-11.205 160.632-87.192 188.567-75.985 27.936-160.633-11.205-188.567-87.191-26.020-70.777 6.085-149.011 72.208-182.016 0 0 6.517-3.163 10.752-5.061 2.335-1.046 3.613-1.713 6.005-2.618zM345.836 243.507c9.317 25.342 37.511 38.38 62.856 29.063s38.38-37.511 29.064-62.856-37.512-38.38-62.856-29.064c-25.344 9.318-38.381 37.512-29.063 62.856zM163.716 298.521c8.182 3.784 11.747 13.484 7.964 21.665s-13.483 11.747-21.665 7.965c-8.182-3.784-11.747-13.484-7.964-21.665 3.783-8.183 13.483-11.748 21.665-7.965zM355.641 477.178c8.182 3.784 11.747 13.484 7.964 21.665s-13.483 11.747-21.665 7.965c-8.182-3.784-11.747-13.484-7.964-21.665s13.483-11.748 21.665-7.965zM398.605 226.105c8.182 3.783 11.747 13.483 7.965 21.665-3.784 8.182-13.484 11.747-21.665 7.964-8.183-3.783-11.748-13.483-7.965-21.665s13.484-11.747 21.665-7.964z" />
<glyph unicode="&#xe915;" glyph-name="surrogacy" d="M831.56 794.55c-1.005 29.165-1.829 54.492-1.829 74.021-0.342 26.311-10.624 51.519-28.781 70.565-11.651 12.788-27.984 20.314-45.275 20.864h-21.139c-31.564-124.172-36.969-253.55-15.872-379.922 17.462-6.285 33.929-15.048 48.896-26.020 8.079-6.059 9.716-17.521 3.657-25.6s-17.521-9.716-25.6-3.657c-43.337 32.512-102.4 36.919-154.515 40.813-26.349 0.78-52.523 4.578-78.007 11.319-16.567 5.487-32.915 12.233-48.549 18.707-21.075 9.494-42.911 17.195-65.28 23.021-1.573 0.122-3.128 0.435-4.625 0.933-16.916 3.968-34.672 2.173-50.451-5.101-9.654-4.589-17.457-12.328-22.125-21.944 29.556-5.064 57.118-18.26 79.597-38.107 165.869-89.82 358.563-117.029 413.915-123.136 24.155 111.543 19.236 262.088 15.981 363.244zM537.162 265.144c30.296 0 54.857 24.56 54.857 54.857s-24.561 54.857-54.857 54.857c-30.298 0-54.857-24.561-54.857-54.857 0-30.298 24.56-54.857 54.857-54.857zM627.362 959.999h-87.149c-6.422-0.005-12.371-3.378-15.671-8.887-20.696-34.398-46.381-65.536-76.215-92.398 29.279-5.593 59.022-8.415 88.832-8.43 70.107 0 86.4 74.295 90.203 109.714zM379.281 814.975c-29.17-11.222-47.633-40.13-45.549-71.315 2.546-41.615 30.928-77.158 70.948-88.849 25.338-6.144 50.051-14.629 73.82-25.344 15.14-6.236 30.793-12.691 46.153-17.811 22.647-5.666 45.839-8.873 69.175-9.564 28.781-1.565 57.422-5.090 85.723-10.551-17.694 122.81-11.774 247.868 17.445 368.456h-32.749c-5.176-58.935-35.823-146.285-127.087-146.285-43.194 0-86.21 5.53-128 16.457-9.528-5.874-19.52-10.956-29.879-15.196zM557.475 9.254c-16.818-1.877-33.728-2.817-50.651-2.816-62.471-0.469-124.266 12.947-180.919 39.277-11.683-28.546-19.529-58.516-23.333-89.124-0.662-5.217 0.952-10.465 4.431-14.406s8.488-6.195 13.745-6.185h464.767c5.471 0 10.655 2.451 14.129 6.678s4.871 9.789 3.81 15.155c-14.483 70.729-47.983 213.815-99.804 317.42-20.439 44.71-30.444 93.483-29.257 142.629-101.777 21.571-200.098 57.062-292.186 105.472-1.531 0.839-2.935 1.892-4.169 3.127-21.673 19.389-49.523 30.456-78.592 31.232h-0.274c-25.096-17.183-46.929-38.7-64.475-63.543 40.873-16.478 66.85-57.009 64.75-101.029 0.692-18.099 7.36-35.461 18.963-49.371 5.582 28.222 30.746 48.275 59.501 47.415 12.748 0.249 25.094-4.465 34.432-13.148 10.374-10.554 15.851-24.973 15.104-39.753 1.998-14.351 9.187-27.472 20.205-36.881-9.432 44.293 14.982 88.817 57.399 104.68s90.055-1.716 112.001-41.33c21.945-39.614 11.585-89.323-24.357-116.872 0.83-39.284-12.959-77.477-38.693-107.172-28.878-27.947-68.152-42.506-108.269-40.137-82.541 0-103.296 28.947-121.873 66.797-4.632 10.991-11.073 21.126-19.055 29.989-10.644 10.65-22.168 20.381-34.45 29.092-13.239 9.691-25.765 18.871-25.765 38.692 0 37.961 18.286 49.647 47.25 53.248-17.969 20.842-28.199 47.245-28.965 74.752 2.507 31.091-16.796 59.792-46.537 69.193-18.185-38.789-27.284-81.215-26.606-124.051 0-145.207 74.258-217.032 136.54-251.738 69.827-36.319 149.032-50.596 227.145-40.941 10.038 1.121 19.085-6.108 20.205-16.147s-6.108-19.085-16.147-20.205zM409.159 192c-2.823-0.028-5.615 0.598-8.156 1.829-34.979 19.712-61.482 51.604-74.459 89.6-45.385-0.109-45.385-1.445-45.385-18.285 3.148-3.547 6.787-6.626 10.807-9.144 13.791-9.814 26.734-20.77 38.693-32.749 10.892-11.655 19.7-25.095 26.039-39.735 13.201-26.935 22.729-46.372 89.033-46.372 30.116-2.159 59.774 8.307 81.864 28.891 15.856 17.915 25.479 40.485 27.429 64.329-5.882-1.179-11.866-1.778-17.865-1.792-81.043 0-146.285 60.013-146.285 109.715 0.405 4.801-0.982 9.583-3.895 13.421-2.572 2.091-5.836 3.136-9.144 2.925-11.464 0-23.607-8.411-23.607-16.347-0.667-45.833 23.425-88.467 63.031-111.543 7.694-3.726 11.779-12.285 9.839-20.61s-9.391-14.194-17.939-14.134z" />
<glyph unicode="&#xe916;" glyph-name="frozen" horiz-adv-x="1141" d="M720.42 315.78c3.734-3.824 10.559-8.69 10.559-8.69 54.914-44.18 135.306-40.648 186.046 10.383 54.474 54.783 54.474 144.027 0 198.81s-143.216 54.783-197.689 0c-50.739-51.027-54.254-131.876-10.323-187.101 0 0 4.365-5.366 7.266-8.715 1.598-1.847 2.437-2.938 4.141-4.685zM807.197 472.101c18.17 18.271 47.728 18.271 65.898 0 18.168-18.27 18.168-47.998 0-66.27s-47.728-18.271-65.898 0c-18.168 18.271-18.168 47.999 0 66.27zM483.308 236.594c3.734-3.824 10.558-8.691 10.558-8.691 54.914-44.179 135.307-40.646 186.048 10.383 54.473 54.783 54.473 144.027 0 198.811s-143.217 54.783-197.689 0c-50.74-51.028-54.254-131.876-10.323-187.101 0 0 4.365-5.366 7.265-8.715 1.598-1.848 2.437-2.939 4.142-4.685zM570.087 392.915c18.168 18.271 47.728 18.271 65.898 0 18.168-18.271 18.168-47.999 0-66.271-18.17-18.271-47.728-18.271-65.898 0s-18.17 47.999 0 66.271zM656.353 80.254c3.734-3.824 10.559-8.691 10.559-8.691 54.914-44.179 135.306-40.646 186.046 10.383 54.474 54.783 54.474 144.027 0 198.811s-143.216 54.783-197.688 0c-50.74-51.028-54.255-131.876-10.323-187.101 0 0 4.364-5.366 7.265-8.715 1.598-1.848 2.437-2.939 4.141-4.685zM743.132 236.576c18.168 18.27 47.727 18.27 65.897 0 18.168-18.271 18.168-47.999 0-66.271s-47.728-18.271-65.897 0c-18.17 18.271-18.17 47.999 0 66.271zM225.647 591.096l148.695-628.236c3.51-14.826 16.748-25.297 31.985-25.297h506.774c15.237 0 28.476 10.471 31.986 25.297l172.262 727.808c4.886 20.644-10.773 40.44-31.986 40.44h-735.554c-4.89-18.331-12.209-35.671-21.593-51.653h733.402l-163.37-690.242h-477.062l-148.674 628.145c-14.319-10.654-30.051-19.519-46.861-26.262zM355.272 759.278h752.865c18.153 0 32.869 14.716 32.869 32.869v18.781c0 18.154-14.717 32.869-32.869 32.869h-759.642c5.439-18.621 8.357-38.316 8.357-58.693 0-8.745-0.537-17.364-1.581-25.826zM124.276 944.276c0 7.824 6.343 14.165 14.166 14.165s14.165-6.342 14.165-14.165v-17.171l5.775 6.011c5.42 5.641 14.387 5.822 20.028 0.401s5.822-14.387 0.402-20.029l-20.671-21.517c-1.596-1.66-3.499-2.848-5.534-3.559v-174.946c2.035-0.71 3.938-1.899 5.534-3.559l20.671-21.516c5.42-5.641 5.24-14.611-0.402-20.030s-14.609-5.24-20.028 0.402l-5.775 6.011v-17.592c0-7.824-6.343-14.166-14.165-14.166s-14.166 6.343-14.166 14.166v17.96l-5.836-5.835c-5.532-5.533-14.501-5.533-20.033 0s-5.532 14.501 0 20.032l21.1 21.1c1.405 1.405 3.034 2.454 4.771 3.146v174.709c-1.737 0.691-3.365 1.739-4.771 3.146l-21.1 21.1c-5.532 5.532-5.532 14.501 0 20.033s14.501 5.532 20.033 0l5.836-5.836v17.541zM7.078 860.175c-6.775 3.912-9.097 12.575-5.184 19.351s12.576 9.097 19.351 5.184l14.871-8.586-2.318 8.006c-2.176 7.516 2.153 15.371 9.667 17.546s15.371-2.152 17.546-9.667l8.299-28.662c0.64-2.213 0.717-4.455 0.315-6.572l151.507-87.472c1.634 1.408 3.614 2.462 5.849 3.013l28.971 7.143c7.596 1.873 15.272-2.766 17.146-10.362s-2.766-15.271-10.362-17.146l-8.093-1.995 15.234-8.795c6.776-3.912 9.097-12.576 5.185-19.352s-12.576-9.097-19.351-5.185l-15.556 8.98 2.136-7.973c2.026-7.556-2.46-15.325-10.016-17.349-7.558-2.026-15.325 2.46-17.349 10.016l-7.722 28.822c-0.515 1.92-0.61 3.855-0.34 5.704l-151.302 87.354c-1.467-1.158-3.189-2.045-5.11-2.559l-28.822-7.723c-7.557-2.024-15.325 2.461-17.349 10.017s2.46 15.325 10.017 17.349l7.973 2.136-15.191 8.77zM21.312 716.627c-6.775-3.912-15.439-1.59-19.351 5.185s-1.591 15.439 5.184 19.351l14.871 8.586-8.094 1.995c-7.596 1.873-12.236 9.55-10.362 17.146 1.872 7.596 9.549 12.236 17.146 10.362l28.971-7.143c2.236-0.553 4.216-1.606 5.849-3.013l151.507 87.472c-0.402 2.117-0.325 4.359 0.315 6.572l8.3 28.662c2.176 7.516 10.032 11.843 17.547 9.667s11.842-10.032 9.666-17.546l-2.318-8.006 15.235 8.796c6.775 3.912 15.439 1.591 19.351-5.184s1.591-15.439-5.185-19.351l-15.554-8.981 7.973-2.136c7.556-2.025 12.042-9.793 10.016-17.349s-9.792-12.041-17.349-10.017l-28.822 7.723c-1.92 0.514-3.642 1.4-5.11 2.559l-151.301-87.355c0.27-1.849 0.176-3.783-0.339-5.703l-7.722-28.822c-2.025-7.556-9.793-12.042-17.349-10.016-7.557 2.024-12.042 9.792-10.017 17.349l2.136 7.973-15.191-8.77zM102.467 116.159l-10.663-7.249c-21.331-14.498-35.285-39.055-35.285-66.898 0-44.476 35.658-80.532 79.646-80.532 43.985 0 79.644 36.056 79.644 80.532 0 27.843-13.953 52.399-35.285 66.898l-10.663 7.249 0.207 12.991c0.003 0.191 0.004 0.381 0.004 0.572v425.787c0 18.936-15.181 34.285-33.907 34.285s-33.908-15.351-33.908-34.285v-425.787c0-0.191 0.002-0.382 0.005-0.572l0.207-12.991zM78.598 555.508c0 32.147 25.773 58.207 57.566 58.207s57.564-26.060 57.564-58.207v-425.787c0-0.32-0.003-0.639-0.008-0.958 27.59-18.753 45.744-50.608 45.744-86.751 0-57.687-46.249-104.453-103.3-104.453s-103.302 46.766-103.302 104.453c0 36.143 18.154 67.998 45.744 86.751-0.005 0.319-0.008 0.638-0.008 0.958v425.787zM136.163 84.272c23.081 0 41.793-18.92 41.793-42.26s-18.713-42.259-41.793-42.259c-23.082 0-41.794 18.92-41.794 42.259s18.712 42.26 41.794 42.26zM136.163 68.325c-14.372 0-26.023-11.781-26.023-26.313s11.651-26.312 26.023-26.312c14.371 0 26.021 11.78 26.021 26.312s-11.65 26.313-26.021 26.313zM127.489 549.926c0 4.404 3.531 7.974 7.886 7.974s7.887-3.569 7.887-7.974v-470.438c0-4.403-3.531-7.973-7.887-7.973s-7.886 3.569-7.886 7.973v470.438zM121.473 164.008c-4.517 0-8.177 3.571-8.177 7.974s3.661 7.973 8.177 7.973h27.804c4.518 0 8.177-3.569 8.177-7.973s-3.66-7.974-8.177-7.974h-27.804zM121.473 226.202c-4.517 0-8.177 3.569-8.177 7.973s3.661 7.974 8.177 7.974h27.804c4.518 0 8.177-3.569 8.177-7.974 0-4.403-3.66-7.973-8.177-7.973h-27.804zM121.473 288.396c-4.517 0-8.177 3.569-8.177 7.974 0 4.403 3.661 7.973 8.177 7.973h27.804c4.518 0 8.177-3.569 8.177-7.973s-3.66-7.974-8.177-7.974h-27.804zM121.473 350.589c-4.517 0-8.177 3.569-8.177 7.973s3.661 7.974 8.177 7.974h27.804c4.518 0 8.177-3.571 8.177-7.974s-3.66-7.973-8.177-7.973h-27.804zM121.473 412.782c-4.517 0-8.177 3.569-8.177 7.974 0 4.403 3.661 7.973 8.177 7.973h27.804c4.518 0 8.177-3.569 8.177-7.973s-3.66-7.974-8.177-7.974h-27.804zM121.473 474.977c-4.517 0-8.177 3.569-8.177 7.973s3.661 7.974 8.177 7.974h27.804c4.518 0 8.177-3.571 8.177-7.974s-3.66-7.973-8.177-7.973h-27.804z" />
<glyph unicode="&#xe917;" glyph-name="legal" d="M1004.925 320.216c-20.977 19.021-53.686 17.777-75.729 0l-164.258-131.371c-20.087-16.177-45.153-24.888-71.107-24.888h-210.301c-15.643 0-28.443 12.799-28.443 28.444 0 15.643 12.799 28.443 28.443 28.443h139.192c28.265 0 54.575 19.376 59.197 47.285 5.866 35.553-21.509 66.486-56.175 66.486h-284.429c-47.998 0-94.395-16.533-131.726-46.753l-82.663-67.018h-98.483c-15.643 0-28.443-12.799-28.443-28.443v-170.658c0-15.643 12.799-28.443 28.443-28.443h634.276c25.776 0 50.842 8.711 71.107 24.888l268.785 215.099c27.020 21.509 29.154 62.751 2.311 86.929zM487.586 500.673c-2.795 5.611-7.665 6.18-9.635 6.18-1.972 0-6.84-0.558-9.494-5.867l-7.268-14.54c-6.035-12.113-23.716-10.777-27.932 1.982l-15.947 47.838-10.052-30.218c-5.579-16.74-21.203-27.991-38.846-27.991h-11.74c-8.375 0-15.159 6.787-15.159 15.167s6.784 15.165 15.159 15.165h11.74c4.577 0 8.631 2.919 10.081 7.26l17.235 51.793c3.127 9.298 11.786 15.554 21.584 15.554s18.457-6.246 21.576-15.554l13.15-39.47c18.713 15.345 51.221 9.193 62.534-13.423 1.791-3.583 5.202-5.639 8.868-5.933v77.839l121.277 120.464v44.122h-128.866c-12.507 0-22.74 10.237-22.74 22.749v128.909h-189.495c-12.601 0-22.739-10.143-22.739-22.749v-439.808c0-12.606 10.138-22.749 22.739-22.749h318.352c12.602 0 22.74 10.143 22.74 22.749v37.914l-121.277 0.105c-15.274 0.294-28.973 8.796-35.843 22.512zM644.707 787.156c0 5.972-2.369 11.754-6.632 16.019l-92.757 92.89c-4.263 4.265-10.043 6.635-16.107 6.635h-5.78v-121.327h121.277v5.782zM553.748 573.83v-65.441h65.367l153.187 154.294-64.314 64.341-154.241-153.193zM819.554 744.094l-30.196 30.208c-9.417 9.421-24.7 9.421-34.118 0l-25.819-25.829 64.314-64.341 25.819 25.829c9.428 9.421 9.428 24.711 0 34.134z" />
<glyph unicode="&#xe918;" glyph-name="pregnancy-support" horiz-adv-x="1112" d="M720.574 869.538c-0.518 15.023-0.942 28.069-0.942 38.128-0.177 13.553-5.473 26.537-14.826 36.348-6.002 6.587-14.416 10.464-23.322 10.747h-10.889c-16.258-63.961-19.042-130.604-8.175-195.698 8.995-3.238 17.477-7.752 25.187-13.403 4.161-3.122 5.005-9.025 1.884-13.186s-9.025-5.005-13.187-1.884c-22.317 16.742-52.731 19.016-79.57 21.022l-0.020 0.001c-13.571 0.402-27.053 2.358-40.181 5.83-8.533 2.826-16.955 6.3-25.007 9.636-10.854 4.89-22.103 8.857-33.625 11.858-0.81 0.063-1.611 0.225-2.383 0.48-8.713 2.044-17.859 1.12-25.987-2.627-4.973-2.364-8.992-6.35-11.397-11.303 15.224-2.608 29.423-9.405 41.001-19.629 85.439-46.266 184.697-60.281 213.209-63.427 12.409 57.303 9.922 134.586 8.245 186.688l-0.014 0.421zM1091.286 296.25c-22.78 20.656-58.299 19.305-82.238 0l-178.375-142.662c-21.813-17.567-49.034-27.025-77.217-27.025h-228.373c-16.989 0-30.887 13.899-30.887 30.887s13.899 30.887 30.887 30.887h151.155c30.694 0 59.265 21.042 64.284 51.35 6.371 38.609-23.359 72.199-61.002 72.199h-308.874c-52.123 0-102.507-17.952-143.047-50.771l-89.767-72.778h-106.947c-16.988 0-30.887-13.9-30.887-30.887v-185.325c0-16.989 13.899-30.887 30.887-30.887h688.789c27.993 0 55.211 9.46 77.219 27.027l291.885 233.586c29.343 23.359 31.659 68.144 2.51 94.4zM597.186 625.096c0-15.606-12.65-28.258-28.257-28.258s-28.258 12.651-28.258 28.258c0 15.606 12.651 28.257 28.258 28.257s28.257-12.65 28.257-28.257zM615.392 954.762h-44.891c-3.309-0.003-6.372-1.74-8.072-4.578-10.661-17.718-23.892-33.758-39.259-47.594 15.082-2.881 30.404-4.334 45.758-4.342 36.112 0 44.505 38.269 46.465 56.514zM464.142 843.325c-1.075 16.063 8.437 30.953 23.462 36.734 5.337 2.184 10.483 4.802 15.391 7.828 21.527-5.629 43.683-8.477 65.933-8.477 47.010 0 62.796 44.994 65.461 75.352h16.87c-15.051-62.116-18.1-126.534-8.986-189.793-14.579 2.813-29.332 4.629-44.157 5.435-12.020 0.357-23.967 2.008-35.632 4.927-7.857 2.618-15.861 5.915-23.609 9.106l-0.164 0.068c-12.244 5.52-24.973 9.89-38.024 13.054-20.615 6.021-35.235 24.33-36.546 45.766zM579.393 465.030c-8.662-0.967-17.372-1.452-26.091-1.45-32.179-0.241-64.009 6.668-93.191 20.231-6.017-14.704-10.059-30.141-12.019-45.907-0.341-2.688 0.491-5.391 2.282-7.422 1.793-2.029 4.372-3.191 7.080-3.185h239.402c2.818 0 5.49 1.261 7.278 3.439s2.51 5.041 1.962 7.806c-7.46 36.433-24.714 110.137-51.408 163.504-10.527 23.031-15.682 48.154-15.070 73.468-52.425 11.112-103.071 29.393-150.505 54.329-0.79 0.432-1.512 0.975-2.148 1.611-11.163 9.987-25.509 15.687-40.483 16.087h-0.14c-12.927-8.85-24.173-19.935-33.212-32.731 21.055-8.488 34.434-29.366 33.352-52.040 0.358-9.323 3.792-18.266 9.768-25.431 2.875 14.537 15.837 24.866 30.65 24.423 6.566 0.128 12.925-2.3 17.735-6.773 5.344-5.437 8.165-12.862 7.781-20.476 1.030-7.393 4.732-14.152 10.408-18.999-4.859 22.816 7.717 45.75 29.565 53.921s46.387-0.885 57.692-21.289c11.305-20.405 5.968-46.011-12.546-60.202 0.427-20.236-6.676-39.909-19.931-55.205-14.875-14.396-35.106-21.895-55.77-20.675-42.516 0-53.209 14.909-62.777 34.408-2.386 5.662-5.703 10.882-9.815 15.447-5.482 5.486-11.418 10.498-17.745 14.985-6.819 4.993-13.271 9.721-13.271 19.93 0 19.554 9.419 25.574 24.339 27.429-9.256 10.736-14.526 24.335-14.919 38.504 1.291 16.015-8.652 30.799-23.971 35.642-9.367-19.98-14.054-41.835-13.705-63.899 0-74.796 38.25-111.795 70.332-129.671 35.968-18.708 76.766-26.062 117.004-21.089 5.171 0.578 9.83-3.147 10.407-8.317s-3.147-9.83-8.317-10.407zM498.795 560.106c1.309-0.635 2.747-0.957 4.2-0.943 4.404-0.032 8.241 2.993 9.241 7.28 1 4.289-1.105 8.697-5.069 10.616-20.4 11.887-32.811 33.848-32.467 57.457 0 4.088 6.254 8.421 12.16 8.421 1.703 0.107 3.386-0.431 4.71-1.507 1.5-1.977 2.215-4.44 2.007-6.913 0-25.602 33.606-56.514 75.351-56.514 3.091 0.006 6.173 0.316 9.203 0.923-1.005-12.282-5.961-23.907-14.129-33.135-11.379-10.603-26.655-15.994-42.17-14.881-34.152 0-39.061 10.012-45.862 23.886-3.264 7.542-7.802 14.465-13.412 20.468-6.16 6.17-12.827 11.814-19.93 16.87-2.071 1.296-3.945 2.883-5.567 4.708 0 8.675 0 9.364 23.378 9.419 6.685-19.571 20.337-35.998 38.354-46.152z" />
</font>
</defs>
</svg>
